<svg xmlns="http://www.w3.org/2000/svg" id="Livello_1" data-name="Livello 1" viewBox="0 0 519.26 116.17"><defs><style>      .cls-1 {        fill: #1d1d1b;      }      .cls-2 {        fill: #e30613;      }    </style></defs><path class="cls-2" d="M97.25,48.78c1.15-5.46.02-7.08-3.52-7.08-5.6,0-6.94,3.5-9.74,16.51-2.8,13.01-2.96,16.51,2.64,16.51,4.52,0,6.04-2.7,8.03-11.79h17.7l-.75,3.57c-2.95,13.48-15.13,16.71-26.83,16.71-20.55,0-23.58-7.08-19.67-25.01,3.96-18.4,11.49-25,30.47-25,16.51,0,21.4,5.93,19.43,15.23l-.7,3.03h-17.7l.63-2.7Z"></path><path class="cls-2" d="M124.47,34.15h18.29l-10.39,48.12h-18.29l10.39-48.12Z"></path><path class="cls-2" d="M151.31,34.15h27.63c13.08,0,18.15,4.79,16.57,12-1.09,5.12-5.37,9.7-13.33,10.79l-.08.13c9.2.61,11.77,6,10.67,10.99-1.86,8.35-8.97,14.22-24.21,14.22h-27.62l10.39-48.12ZM161.11,73.25h5.11c3.34,0,6.99-2.03,7.79-5.93.83-3.71-1.92-5.8-5.27-5.8h-5.11l-2.53,11.73ZM165.48,53.03h4.43c3.74,0,6.27-2.29,6.91-4.85.53-2.69-1.06-4.98-4.8-4.98h-4.42l-2.12,9.84Z"></path><path class="cls-1" d="M228.38,34.15l-7.53,34.71c-.93,4.65.85,5.86,4.29,5.86s5.78-1.21,6.72-5.86l7.53-34.71h18.28l-6.84,31.54c-2.85,13.48-12.2,17.52-27.54,17.52s-22.9-4.05-20.04-17.52l6.84-31.54h18.29Z"></path><path class="cls-1" d="M265.54,34.15h20.45l5.36,29.66h.2l6.43-29.66h17.11l-10.38,48.12h-20.06l-5.76-29.72h-.2l-6.43,29.72h-17.11l10.38-48.12Z"></path><path class="cls-1" d="M323.05,34.15h18.28l-10.38,48.12h-18.29l10.39-48.12Z"></path><path class="cls-1" d="M368.09,56.13h23.6l-5.59,26.15h-12.39l.48-4.25h-.2c-3.35,4.11-10.03,5.19-16.22,5.19-18.58,0-18.26-9.1-14.85-25.01,3.49-16.11,9.92-25,31.55-25,12.98,0,21.17,4.51,18.74,16.18h-17.7c.46-2.43.57-4.31.16-5.6-.32-1.35-1.58-2.09-3.74-2.09-6,0-7.34,3.5-10.13,16.51-2.8,13.01-2.96,16.51,2.64,16.51,3.83,0,6.43-1.69,8.38-10.11h-6.49l1.75-8.49Z"></path><path class="cls-1" d="M415.46,34.15h23.01l6.72,48.12h-19.47v-8.42h-14.56l-3.73,8.42h-19.47l27.49-48.12ZM424.95,44h-.2l-9.47,20.42h10.22l-.56-20.42Z"></path><path class="cls-1" d="M482.94,48.04l.28-1.14c.62-2.83-.59-5.19-4.13-5.19-3.93,0-6.19,2.09-6.58,4.25-2.05,9.5,28.77,4.85,25.03,22.44-2.27,10.25-11.96,14.83-28.09,14.83-15.14,0-22.85-3.57-20.65-13.55l.33-1.69h17.69l-.28,1.15c-.89,4.11,1.32,5.59,4.86,5.59,3.74,0,6.3-2.02,6.83-4.65,2.05-9.5-27.59-4.79-23.99-21.84,2.13-9.71,10.87-15.03,26.3-15.03s21.66,4.51,19.5,14.83h-17.11Z"></path><path class="cls-2" d="M19.1,58.08C53.21-6.02,195.17,4.72,195.17,4.72V1.39C182.24-.51,35.06-9.11,0,58.08c35.06,67.19,182.24,58.59,195.17,56.69v-3.33S53.21,122.19,19.1,58.08"></path><path class="cls-1" d="M513.1,35.91c1.04,0,2.05.27,3.03.8.99.53,1.76,1.29,2.3,2.28.55.99.83,2.02.83,3.09s-.27,2.08-.81,3.06c-.54.98-1.3,1.74-2.28,2.29-.98.54-2,.81-3.07.81s-2.09-.27-3.07-.81c-.98-.54-1.74-1.3-2.28-2.29-.54-.98-.82-2-.82-3.06s.28-2.1.83-3.09c.55-.99,1.32-1.75,2.31-2.28.99-.53,2-.8,3.03-.8ZM513.1,36.93c-.87,0-1.71.22-2.53.67-.82.44-1.46,1.08-1.92,1.9s-.7,1.68-.7,2.58.23,1.74.68,2.55c.46.82,1.09,1.45,1.91,1.9.82.46,1.67.68,2.56.68s1.74-.23,2.56-.68c.82-.45,1.45-1.09,1.9-1.9.45-.81.68-1.66.68-2.55s-.23-1.75-.69-2.58-1.1-1.46-1.92-1.9c-.82-.45-1.67-.67-2.53-.67ZM510.4,45.48v-6.64h2.28c.78,0,1.34.06,1.69.19.35.12.63.33.83.64s.31.63.31.97c0,.48-.17.91-.52,1.27-.35.36-.8.56-1.38.61.23.1.42.22.56.35.27.26.59.7.98,1.32l.81,1.3h-1.31l-.59-1.04c-.46-.82-.84-1.34-1.12-1.54-.2-.15-.48-.23-.86-.23h-.63v2.82h-1.07ZM511.47,41.75h1.3c.62,0,1.04-.09,1.27-.28s.34-.43.34-.74c0-.2-.05-.37-.16-.53s-.26-.27-.45-.35c-.19-.08-.55-.12-1.07-.12h-1.22v2Z"></path></svg>