<?xml version="1.0" encoding="UTF-8"?><svg xmlns="http://www.w3.org/2000/svg" viewBox="0 0 1205.21 214.06"><defs><style>.cls-1{fill:#80c242;}.cls-2{fill:#fff;}.cls-3{fill:#ffec00;}.cls-4{fill:#231f20;}</style></defs><g id="Spider"><polyline class="cls-2" points="214.07 107.02 107.02 214.06 0 107.04 107.04 0"/><line class="cls-2" x1="107.05" x2="214.07" y2="107.02"/><polyline class="cls-1" points="200.93 107.02 107.03 200.93 13.14 107.04 107.05 13.14 200.93 107.02"/><path class="cls-4" d="m151.31,117.45l-.26.6.63-.16c3.93-1.03,7.12-5.76,9.46-9.76l.12-.21-.18-.17c-2.61-2.56-5.46-4.92-8.56-7.06l.22-.1c4.14-1.85,3.7-7.87,3.38-12.26-.04-.53-.07-1.03-.11-1.49v-.21s-.2-.08-.2-.08c-9.91-3.5-22.47-3.32-35.76-3.14-1.59.03-3.19.05-4.79.06.04-.11.09-.21.14-.31,6.16-4.55,12.93-7.78,20.69-9.79,2.88,1.53,4.05,4.29,5.28,7.2.38.86.75,1.74,1.17,2.59l.31.63.26-.66c1.38-3.48-1.9-10.09-5.27-12.3l-.11-.07-.11.02c-7.2,1.25-13.06,4.48-18.23,7.33-1.05.59-2.08,1.14-3.1,1.68.08-.58.15-1.17.15-1.77,0-6.28-3.97-4.54-9.39-11.37-4.77,6.2-9.39,5.09-9.39,11.37,0,.82.08,1.61.21,2.37-1.8-.88-3.55-1.8-5.25-2.71-5.01-2.72-10.19-5.53-17.23-6.86l-.17-.04-.12.13c-2.82,3.03-4.9,8.53-4.71,12.54v.3c-4.68.65-9.05,1.61-12.66,2.85l-.2.07-.02.2c-.26,2.74-.52,9.57,2.62,14.02-2.84,2.01-5.4,4.2-7.67,6.55l-.17.17h0s.12.21.12.21c.32.53.64,1.06.95,1.58,2.04,3.46,4.15,7.04,8.47,8.92l.45.18v-.48c.02-1.88-1.44-3.59-2.86-5.26-1.47-1.73-3.01-3.53-2.82-5.47.14-1.36,2.82-3.72,7.57-6.68,7.98-4.97,22.36-10.42,33.41-11.4-16.98,9.39-30.58,21.78-41.55,37.85l-.12.18.12.18c6.29,8.98,14.99,16.64,25.87,22.75l.35-.52c-1.15-.96-2.31-1.91-3.47-2.85-2.83-2.31-5.77-4.71-8.87-7.51-.56-.5-1.22-1.06-1.9-1.66-3.36-2.88-7.95-6.82-8.31-10.04-.33-3.11,4.03-7.51,7.23-10.73.31-.32.63-.64.92-.94,8.59-8.77,20.2-20.6,34.04-25.96.03,2.68.31,4.96,2.22,6.11.09-2.73,1.29-4.88,2.74-4.88s2.66,2.15,2.74,4.88c1.97-1.17,2.21-3.55,2.24-6.34,12.22,5.08,21.22,13.15,28.7,20.39.42.41.88.85,1.38,1.32,4.46,4.27,11.93,11.41,11.93,15.36,0,3.01-4.57,7.78-7.58,10.94-.39.41-.76.8-1.09,1.15-3.22,3.43-6.46,5.89-9.88,8.49-.64.49-1.28.97-1.92,1.47l.35.53c9.71-5.85,17.71-13.12,23.78-21.62l.12-.18-.12-.19c-12.2-17.66-25.62-29.97-42.13-38.62,7.94.48,16.62,3.71,22.65,6.43,14.17,6.38,17.82,9.68,18.39,11.33.78,2.27-.84,4.47-2.55,6.79-.98,1.32-1.97,2.68-2.58,4.12h0Zm-80.34-33.85c.91-1.24,1.49-2.72,2.05-4.16.97-2.5,1.89-4.86,4.41-6.06,8.6,2.67,16.68,6.64,21.08,10.29-4.11-.64-8.69-.94-13.38-.94s-9.63.32-14.2.92l.04-.06h0Zm-10.08,16.74c.46-1.43.4-3.19.34-5.04-.08-2.8-.17-5.68,1.43-7.77,9.38-3,26.29-4.04,36.08-1.15-15.6,2.72-28.28,7.4-37.85,13.96h0Zm91.35.14c-10.08-6.91-22.76-11.63-37.83-14.1,10.63-2.81,27.45-1.1,36.48,1.12,2.29,2.5,2.45,8.26,1.41,12.71l-.06.27Z"/></g><g id="ADE"><g><path class="cls-2" d="m304.93,73.86c8.02.22,14.69,1.11,20,2.68,5.31,1.57,9.32,3.93,12.03,7.07,2.6,3.04,4.15,6.89,4.63,11.55.49,4.66-.08,10.03-1.71,16.1-1.74,6.29-4.09,11.71-7.07,16.26-2.98,4.55-6.53,8.24-10.65,11.06-4.12,2.71-8.32,4.93-12.6,6.67-4.28,1.74-8.59,2.93-12.93,3.58-.33,0-.62.03-.89.08-.27.06-.57.14-.89.24-.65.11-1.28.19-1.87.24-.6.06-1.17.08-1.71.08-.87.11-1.74.16-2.6.16h-2.6l-25.53-.33-11.22,42.28h-33.34l31.39-117.74h57.57Zm-38.21,52.36h15.29c3.14.22,5.99-.03,8.54-.73,2.55-.7,4.85-1.76,6.91-3.17,2.06-1.52,3.74-3.17,5.04-4.96,1.3-1.79,2.22-3.82,2.76-6.1.65-2.49.7-4.66.16-6.5-.54-1.84-1.68-3.31-3.42-4.39-1.74-1.08-3.85-1.9-6.34-2.44-2.5-.54-5.31-.81-8.46-.81l-12.52-.33-7.97,29.43Z"/><path class="cls-2" d="m408.19,73.86c.97.22,2.22.35,3.74.41,1.52.06,3.3.14,5.37.24,1.95.11,3.96.35,6.02.73,2.06.38,4.12.89,6.18,1.54,2.6.76,5.01,1.87,7.24,3.33,2.22,1.46,4.31,3.17,6.26,5.12,1.84,2.06,3.06,4.61,3.66,7.64.59,3.04.51,6.61-.24,10.73-.11.11-.16.22-.16.33v.33c-.11.11-.16.19-.16.24s.05.14.16.24c-.11.11-.16.22-.16.33v.49c-.11.11-.16.22-.16.33-.87,3.25-2.28,6.29-4.23,9.11-1.95,2.82-4.39,5.37-7.32,7.64-2.93,2.28-6.1,4.07-9.51,5.37-3.41,1.3-7.13,2.11-11.14,2.44v.16h.32c3.14.98,6.1,2.25,8.86,3.82,2.76,1.57,5.34,3.44,7.72,5.61,2.17,2.17,3.55,4.91,4.15,8.21.59,3.31.3,7.18-.89,11.63-1.52,5.75-3.85,10.65-6.99,14.72-3.15,4.07-7.1,7.35-11.87,9.84-4.66,2.39-10.19,4.17-16.59,5.37-6.4,1.19-13.61,1.79-21.63,1.79h-52.53l31.39-117.74h52.53Zm-26.51,94.64c2.38.22,4.53.11,6.42-.33,1.9-.43,3.55-1.14,4.96-2.11,1.41-.98,2.6-2,3.58-3.09.98-1.08,1.73-2.17,2.28-3.25,0-.11.05-.22.16-.33,0-.11.03-.16.08-.16.05,0,.08-.05.08-.16.11-.22.16-.38.16-.49s.05-.22.16-.33c.11-.22.19-.41.24-.57.05-.16.08-.3.08-.41s.03-.22.08-.33c.05-.11.08-.22.08-.33,0-.22.03-.43.08-.65.05-.22.13-.43.24-.65v-1.06c0-.38-.05-.79-.16-1.22-.11-.98-.38-1.95-.81-2.93-.44-.98-1.09-1.9-1.95-2.76-.76-.87-1.85-1.54-3.25-2.03-1.41-.49-3.04-.73-4.88-.73l-19.19-.33-6.34,24.23h17.89Zm11.71-48.62c2.49.22,4.69.08,6.59-.41,1.9-.49,3.55-1.22,4.96-2.2,1.3-.98,2.44-2.17,3.41-3.58.98-1.41,1.68-3.09,2.12-5.04.54-1.52.65-2.98.32-4.39-.32-1.41-.92-2.66-1.79-3.74-.97-1.19-2.28-2.06-3.9-2.6-1.63-.54-3.52-.81-5.69-.81l-16.42-.33-6.18,23.09h16.59Z"/><path class="cls-2" d="m554.87,73.86l-6.34,24.23h-56.27l-6.18,23.09h52.53l-6.67,24.39h-52.53l-6.02,22.93h56.27l-6.18,23.09h-89.6l31.38-117.74h89.6Z"/><path class="cls-2" d="m716.48,73.86l14.8,117.74h-37.08l-2.11-21.79h-46.02l-13.33,21.79h-34.64l78.71-117.74h39.68Zm-27.97,24.23l-28.29,47.48h29.43l-1.14-47.48Z"/><path class="cls-2" d="m754.04,109.63h35.94l3.9,23.09,16.59-23.09h33.34l-36.1,38.38,16.59,43.58h-38.38l-3.74-29.43-20.65,29.43h-33.17l38.38-43.58-12.68-38.38Z"/><path class="cls-2" d="m916.82,164.76c-1.95,4.99-4.5,9.3-7.64,12.93-3.15,3.63-6.89,6.69-11.22,9.19-4.34,2.39-9.13,4.2-14.39,5.45-5.26,1.25-10.92,1.87-16.99,1.87-7.7,0-14.15-.84-19.35-2.52-5.2-1.68-9.11-4.31-11.71-7.89-2.71-3.58-4.26-8.1-4.63-13.58-.38-5.47.46-11.9,2.52-19.27,1.84-6.72,4.42-12.74,7.72-18.05,3.31-5.31,7.45-9.92,12.44-13.82,4.98-3.9,10.41-6.83,16.26-8.78,5.85-1.95,12.14-2.93,18.86-2.93,8.67,0,15.61,1.25,20.82,3.74,5.2,2.5,8.72,6.29,10.57,11.38,1.73,4.99,2.57,10.49,2.52,16.51-.06,6.02-1,12.55-2.85,19.6l-58.87-.33c0,.43-.08.87-.24,1.3-.16.43-.3.87-.41,1.3,0,.22-.03.43-.08.65-.06.22-.14.43-.24.65-.11.76-.22,1.49-.33,2.2-.11.71-.16,1.44-.16,2.2,0,1.3.16,2.52.49,3.66.33,1.14.87,2.25,1.63,3.33.65,1.08,1.68,1.87,3.09,2.36,1.41.49,3.2.73,5.37.73h1.63c.11,0,.22-.05.33-.16h.81c1.41-.22,2.85-.59,4.31-1.14,1.46-.54,2.9-1.3,4.31-2.28,1.52-.98,2.76-2.11,3.74-3.42.98-1.3,1.68-2.82,2.11-4.55l.16-.33h29.43Zm-22.2-30.98c-.16-2-.79-3.71-1.87-5.12-1.08-1.52-2.33-2.66-3.74-3.42-1.41-.76-3.04-1.14-4.88-1.14-1.95,0-3.85.43-5.69,1.3-1.84.87-3.69,2.11-5.53,3.74-1.84,1.63-3.36,3.42-4.55,5.37-1.19,1.95-2.06,4.01-2.6,6.18l28.13-.33c.65-2.38.89-4.58.73-6.59Z"/><path class="cls-2" d="m982.84,73.86l-31.39,117.74h-30.73l31.38-117.74h30.74Z"/><path class="cls-2" d="m1028.54,73.86l-31.39,117.74h-30.73l31.38-117.74h30.74Z"/></g><g><path class="cls-1" d="m1043.86,163.78c2.01.03,5.44-1.17,10.18-3.56,4.8-2.42,9.87-5.58,14.27-8.9,9.21-6.95,20.23-18.04,20.44-31.47.21-13.46-10.52-24.56-19.55-31.51-8.59-6.6-19.8-12.45-24-12.51-.89-.01-1.72.17-2.45.55-1.52.79-2.47,2.34-2.5,4.04h0c-.03,2.24,1.46,3.72,2.36,4.61.75.75,1.73,1.62,2.96,2.73,6.65,5.96,20.47,18.36,20.27,31.74-.09,5.6-2.67,11.73-7.68,18.21-4.45,5.75-9.88,10.6-13.47,13.8-1.27,1.13-2.36,2.11-3.17,2.9-1.18,1.16-2.43,2.57-2.46,4.6-.03,2.3,1.75,4.72,4.81,4.76Z"/><path class="cls-3" d="m1058.96,140.52s-.05-.04-.07-.06"/><path class="cls-1" d="m1084.23,43.56c15.74-4.44,48.5-13.67,69-.24,8.59,5.63,15.54,15.64,20.65,29.75,4.54,12.52,6.71,25.68,8.15,34.39.51,3.07.95,5.72,1.39,7.75.65,2.96,1.59,6.29,4.7,8.33,3.53,2.31,9.02,1.91,12.09-2.77,2.02-3.09,3.53-9.56,4.48-19.25.96-9.8,1.04-20.75.22-30.83-1.72-21.07-8.08-49.01-28.66-62.5-20.63-13.52-48.34-7.81-67.94-.64-18.64,6.82-38.69,18.44-42.91,24.87-.9,1.37-1.42,2.83-1.54,4.33-.27,3.12,1.19,6.12,3.81,7.83h0c3.43,2.25,7.2,1.39,9.45.87,1.89-.43,4.2-1.08,7.12-1.9Z"/><path class="cls-1" d="m1118.62,141.1c-.48,2.14-.9,3.99-1.15,5.43-.36,2.1-.63,4.53.86,6.69,1.69,2.45,5.38,3.65,8.63,1.41,2.14-1.48,4.85-5.31,8.04-11.38,3.23-6.15,6.19-13.27,8.34-20.07,4.48-14.21,7.75-34.15-2.1-48.42-9.88-14.31-29.48-17.95-44.19-18.48-13.98-.5-30.16,1.76-34.63,4.84-.95.65-1.67,1.47-2.16,2.42-1,1.97-.85,4.31.4,6.13,0,0,0,0,0,0,1.64,2.38,4.33,2.82,5.94,3.08,1.35.22,3.03.41,5.15.65,11.46,1.29,35.3,3.96,45.11,18.18,4.11,5.96,5.99,14.34,5.58,24.91-.37,9.38-2.44,18.55-3.82,24.62Z"/></g></g></svg>