<svg id="レイヤー_1" data-name="レイヤー 1" xmlns="http://www.w3.org/2000/svg" viewBox="0 0 411.158 57.145"><defs><style>.cls-1{fill:#f29600;}.cls-2{fill:#004da0;}.cls-3{fill:#333;}</style></defs><title>アートボード 1</title><path class="cls-1" d="M28.076,35.553a23.773,23.773,0,0,1-.8-11.053L30.833,0,14.16,5.152l-2.708,18.4c-.486,3.344-.763,8.206,2.421,11.887,3.829,4.425,11.113,5.035,18.415,5.035,0,0-3.356-2.481-4.212-4.926"/><path class="cls-2" d="M34.169,38.357a20.019,20.019,0,0,1-1.392,2.122l17.98-5.556a13.283,13.283,0,0,0,.875-1.222l5-1.544q.289-.435.543-.9l-23,7.1"/><path class="cls-2" d="M35.8,34.91c-.277.709-.563,1.359-.85,1.954l17.855-5.517q.2-.521.349-1.07l5.08-1.569q.115-.39.208-.794l-22.642,7"/><path class="cls-2" d="M36.883,31.633c-.179.658-.37,1.278-.569,1.867l17.267-5.335.147-1.024,5.1-1.578.106-.743L36.883,31.633"/><path class="cls-2" d="M37.6,28.469c-.115.628-.241,1.229-.375,1.808l16.8-5.192.145-1.015,5.105-1.578.108-.754L37.6,28.469"/><path class="cls-2" d="M38.077,25.378l-.2,1.418c-.017.12-.037.234-.055.353l16.644-5.144L54.608,21l5.105-1.577.11-.763L38.077,25.378"/><polyline class="cls-2" points="39.394 16.142 39.142 17.911 55.789 12.767 55.934 11.759 61.039 10.181 61.147 9.424 39.394 16.142"/><path class="cls-2" d="M31.219,42.212c5.527,0,11.778-1.244,16.285-4.329l4.674-1.445A17.24,17.24,0,0,0,53.866,35.2L31.219,42.212"/><polyline class="cls-2" points="38.516 22.3 38.263 24.069 54.905 18.926 55.051 17.908 60.156 16.331 60.266 15.567 38.516 22.3"/><polyline class="cls-2" points="38.955 19.221 38.703 20.99 55.347 15.846 55.497 14.801 60.602 13.224 60.709 12.481 38.955 19.221"/><polyline class="cls-2" points="39.834 13.063 39.581 14.833 56.231 9.687 56.376 8.68 61.48 7.102 61.59 6.339 39.834 13.063"/><polyline class="cls-2" points="40.273 9.985 40.02 11.754 56.672 6.608 56.818 5.594 61.922 4.017 62.032 3.254 40.273 9.985"/><polyline class="cls-2" points="40.712 6.906 40.46 8.675 57.114 3.528 57.264 2.485 62.369 0.907 62.475 0.165 40.712 6.906"/><path d="M7.533,51.747A3.468,3.468,0,0,1,3.693,55C.832,55-.256,53.4.05,51.3l.684-4.744H2.508L1.835,51.27a1.725,1.725,0,0,0,1.858,2.189A1.973,1.973,0,0,0,5.784,51.6l.709-5.05H8.266l-.733,5.2"/><path d="M10.7,51.154H11.4c.958,0,1.359-.478,1.359-.968,0-.527-.411-.851-1.114-.851h-.7L10.7,51.154m1.282-2.933a2.028,2.028,0,0,1,2.249,2.005,1.7,1.7,0,0,1-1.487,1.741v.019a1.384,1.384,0,0,1,.7.782L14.47,54.89H12.905l-.635-1.35c-.567-1.2-.724-1.349-1.418-1.349h-.3l-.372,2.7H8.759l.929-6.669Z"/><path d="M17.014,52.484h1.545l-.352-2.952h-.02l-1.173,2.952m3.324,2.406H18.882l-.206-1.457H16.6l-.645,1.457H14.393l3.266-6.758h1.506Z"/><path d="M25.552,49.835a3.245,3.245,0,0,0-1.653-.587c-.518,0-.939.293-.939.733,0,.959,2.455,1.085,2.455,2.953a2.045,2.045,0,0,1-2.259,2.044,3.939,3.939,0,0,1-2.269-.636l.216-1.164a3.64,3.64,0,0,0,1.887.685c.576,0,.958-.293.958-.734,0-1.1-2.455-1.231-2.455-2.982a2.141,2.141,0,0,1,2.347-2.015,3.815,3.815,0,0,1,1.908.529l-.2,1.174"/><polyline points="34.939 49.335 32.768 49.335 31.986 54.89 30.567 54.89 31.35 49.335 29.238 49.335 29.395 48.221 35.095 48.221 34.939 49.335"/><polyline points="39.994 49.335 37.247 49.335 37.022 50.91 39.437 50.91 39.281 52.024 36.865 52.024 36.621 53.775 40.083 53.775 39.926 54.89 35.046 54.89 35.985 48.221 40.151 48.221 39.994 49.335"/><path d="M46.829,49.61a5.35,5.35,0,0,0-1.614-.245,2.6,2.6,0,0,0-2.846,2.592,1.723,1.723,0,0,0,1.907,1.789,4.734,4.734,0,0,0,2.425-.782l-.2,1.486a5.621,5.621,0,0,1-2.347.528A2.991,2.991,0,0,1,40.9,51.927c0-2.239,1.781-3.8,4.352-3.8a7.229,7.229,0,0,1,1.809.245l-.234,1.233"/><polyline points="53.724 54.89 52.306 54.89 52.697 52.172 49.294 52.172 48.912 54.89 47.494 54.89 48.433 48.221 49.851 48.221 49.48 50.861 52.873 50.861 53.245 48.221 54.662 48.221 53.724 54.89"/><polyline points="61.381 54.89 60.032 54.89 57.294 50.372 57.274 50.372 56.648 54.89 55.231 54.89 56.169 48.221 57.587 48.221 60.276 52.572 60.296 52.572 60.893 48.221 62.31 48.221 61.381 54.89"/><path d="M66.857,49.365A2.416,2.416,0,0,0,64.5,51.81a1.835,1.835,0,0,0,1.907,1.936,2.406,2.406,0,0,0,2.366-2.475,1.845,1.845,0,0,0-1.916-1.906M66.4,54.978a3.122,3.122,0,0,1-3.365-3.1,3.724,3.724,0,0,1,3.921-3.746,3.028,3.028,0,0,1,3.286,3.042A3.655,3.655,0,0,1,66.4,54.978Z"/><path d="M66.761,50.382A1.207,1.207,0,0,0,65.584,51.6a.917.917,0,0,0,.953.968,1.2,1.2,0,0,0,1.182-1.236.923.923,0,0,0-.958-.953"/><path d="M108.788,49.253a5.265,5.265,0,0,1-.543,2.482,4.368,4.368,0,0,1-1.44,1.623,6.194,6.194,0,0,1-1.93.859,8.453,8.453,0,0,1-2.065.262,8.18,8.18,0,0,1-2.8-.492,4.975,4.975,0,0,1-2.278-1.667,4.86,4.86,0,0,1-.916-3.067V43h3.41V48.37a4.609,4.609,0,0,0,.323,1.851,2.25,2.25,0,0,0,.9,1.073,2.645,2.645,0,0,0,1.361.338,2.611,2.611,0,0,0,1.333-.336,2.2,2.2,0,0,0,.9-1.063,4.543,4.543,0,0,0,.324-1.847V43h3.418Z"/><path d="M122.362,54.331h-3.673l-.89-2.011a8.373,8.373,0,0,0-.883-1.615,1.91,1.91,0,0,0-.765-.655,2.725,2.725,0,0,0-.961-.144h-.385v4.425h-3.418V43H117.2a4.234,4.234,0,0,1,2.307.571,3.456,3.456,0,0,1,1.3,1.391,3.576,3.576,0,0,1,.4,1.554,2.941,2.941,0,0,1-.332,1.452,2.653,2.653,0,0,1-.7.862,6.922,6.922,0,0,1-.826.515,3.3,3.3,0,0,1,.9.757,9.533,9.533,0,0,1,.969,1.771Zm-4.645-7.752a1.171,1.171,0,0,0-.516-1.1,3.383,3.383,0,0,0-1.677-.311h-.719V47.9h.736a3.667,3.667,0,0,0,1.713-.274A1.114,1.114,0,0,0,117.717,46.579Z"/><path d="M136.879,54.331h-3.5l-.925-2.3h-4.923l-.94,2.3h-3.5L128.1,43h3.778Zm-5.209-4.269-1.66-4.138-1.676,4.138Z"/><path d="M146.221,51.036a3.125,3.125,0,0,1-.543,1.84,3.429,3.429,0,0,1-1.517,1.189,5.679,5.679,0,0,1-2.233.414c-.233,0-.522-.016-.863-.046a9.774,9.774,0,0,1-1.356-.249,10.642,10.642,0,0,1-1.763-.606V50.8a12.641,12.641,0,0,0,1.688.883,4.52,4.52,0,0,0,1.779.35,1.557,1.557,0,0,0,1.133-.289.853.853,0,0,0,.258-.544.926.926,0,0,0-.442-.772,6.285,6.285,0,0,0-1.283-.652,10.106,10.106,0,0,1-1.637-.853,3.9,3.9,0,0,1-1.149-1.157,2.986,2.986,0,0,1-.445-1.645,3.006,3.006,0,0,1,1.823-2.838,5.217,5.217,0,0,1,2.257-.441,7.919,7.919,0,0,1,1.755.183,7.764,7.764,0,0,1,1.329.414,5.313,5.313,0,0,1,.719.359v2.659a9.251,9.251,0,0,0-1.549-.891,4.315,4.315,0,0,0-1.828-.393,1.411,1.411,0,0,0-.925.245.769.769,0,0,0-.285.6.743.743,0,0,0,.285.581,4.982,4.982,0,0,0,1.023.6,20.51,20.51,0,0,1,2.093,1.105,4.153,4.153,0,0,1,1.232,1.132A2.75,2.75,0,0,1,146.221,51.036Z"/><path d="M164.385,45.752h-4.154v8.579H156.82V45.752h-4.154V43h11.719Z"/><path d="M174.52,54.331h-8.547V43h8.407V45.27h-4.989v2.077h4.759v2.281h-4.759v2.42h5.129Z"/><path d="M186.874,53.481a8.206,8.206,0,0,1-1.44.588,8.816,8.816,0,0,1-1.484.315,12.348,12.348,0,0,1-1.55.095,8.023,8.023,0,0,1-2.653-.41,5.745,5.745,0,0,1-2.036-1.206A5.106,5.106,0,0,1,176.419,51a6.212,6.212,0,0,1-.43-2.344,6.071,6.071,0,0,1,.507-2.563,4.975,4.975,0,0,1,1.419-1.828,6.086,6.086,0,0,1,2.077-1.075,8.583,8.583,0,0,1,2.457-.348,13.368,13.368,0,0,1,4.375.859v3.01a11.891,11.891,0,0,0-1.663-.872,4.952,4.952,0,0,0-1.934-.347,4.421,4.421,0,0,0-1.849.391A3.431,3.431,0,0,0,180,47a2.836,2.836,0,0,0-.524,1.7,2.877,2.877,0,0,0,.457,1.575,3.241,3.241,0,0,0,1.272,1.135,3.925,3.925,0,0,0,1.837.422,5.99,5.99,0,0,0,1.562-.2,7.269,7.269,0,0,0,1.239-.448,10.67,10.67,0,0,0,1.034-.58Z"/><path d="M201.221,54.331h-3.41V49.906h-5.144v4.425h-3.418V43h3.418v4.162h5.144V43h3.41Z"/><path d="M216.257,54.331h-3.044l-5.879-6.313v6.313h-3.385V43h3.033l5.864,6.28V43h3.411Z"/><path d="M231.137,48.655a5.964,5.964,0,0,1-.731,2.92,5.3,5.3,0,0,1-2.179,2.118,7.3,7.3,0,0,1-3.525.786,7.153,7.153,0,0,1-3.557-.819,5.321,5.321,0,0,1-2.164-2.15,6.139,6.139,0,0,1,0-5.713,5.287,5.287,0,0,1,2.164-2.143,7.219,7.219,0,0,1,3.561-.813,7.873,7.873,0,0,1,2.8.467,5.6,5.6,0,0,1,2.022,1.263,5.313,5.313,0,0,1,1.2,1.856A6.124,6.124,0,0,1,231.137,48.655Zm-3.482,0a3.474,3.474,0,0,0-.188-1.164,2.516,2.516,0,0,0-.569-.917,2.664,2.664,0,0,0-.929-.606,3.432,3.432,0,0,0-1.267-.216,2.911,2.911,0,1,0,0,5.815,3.2,3.2,0,0,0,1.6-.373,2.456,2.456,0,0,0,1.007-1.03A3.222,3.222,0,0,0,227.655,48.655Z"/><path d="M248.385,53.481a8.206,8.206,0,0,1-1.44.588,8.837,8.837,0,0,1-1.484.315,12.367,12.367,0,0,1-1.549.095,8.039,8.039,0,0,1-2.655-.41,5.741,5.741,0,0,1-2.035-1.206A5.082,5.082,0,0,1,237.93,51a6.212,6.212,0,0,1-.429-2.344,6.086,6.086,0,0,1,.5-2.563,4.967,4.967,0,0,1,1.42-1.828,6.1,6.1,0,0,1,2.077-1.075,8.58,8.58,0,0,1,2.458-.348,13.378,13.378,0,0,1,4.375.859v3.01a12.021,12.021,0,0,0-1.665-.872,4.949,4.949,0,0,0-1.934-.347,4.424,4.424,0,0,0-1.848.391A3.424,3.424,0,0,0,241.508,47a2.835,2.835,0,0,0-.523,1.7,2.869,2.869,0,0,0,.457,1.575,3.231,3.231,0,0,0,1.271,1.135,3.918,3.918,0,0,0,1.836.422,5.992,5.992,0,0,0,1.563-.2,7.207,7.207,0,0,0,1.239-.448,10.79,10.79,0,0,0,1.034-.58Z"/><path d="M262.717,48.655a5.955,5.955,0,0,1-.733,2.92,5.281,5.281,0,0,1-2.178,2.118,7.3,7.3,0,0,1-3.524.786,7.163,7.163,0,0,1-3.559-.819,5.312,5.312,0,0,1-2.163-2.15,6.143,6.143,0,0,1,0-5.713,5.276,5.276,0,0,1,2.162-2.143,7.23,7.23,0,0,1,3.563-.813,7.862,7.862,0,0,1,2.8.467,5.6,5.6,0,0,1,2.024,1.263,5.327,5.327,0,0,1,1.2,1.856A6.166,6.166,0,0,1,262.717,48.655Zm-3.484,0a3.425,3.425,0,0,0-.188-1.164,2.487,2.487,0,0,0-.568-.917,2.669,2.669,0,0,0-.928-.606,3.439,3.439,0,0,0-1.267-.216,2.911,2.911,0,1,0,0,5.815,3.206,3.206,0,0,0,1.6-.373,2.451,2.451,0,0,0,1-1.03A3.2,3.2,0,0,0,259.233,48.655Z"/><path d="M267.331,52.72a1.71,1.71,0,0,1-.5,1.246,1.668,1.668,0,0,1-1.24.513,1.72,1.72,0,0,1-1.251-.516,1.743,1.743,0,0,1,0-2.49,1.76,1.76,0,0,1,2.122-.274,1.705,1.705,0,0,1,.643.638A1.761,1.761,0,0,1,267.331,52.72Z"/><path d="M272.548,53.546a3.153,3.153,0,0,1-.217,1.123,3.423,3.423,0,0,1-.67,1.085,3.919,3.919,0,0,1-1.21.878,5.743,5.743,0,0,1-1.755.513v-.516a2.07,2.07,0,0,0,1.284-2.175v-.172A1.564,1.564,0,0,1,268.7,52.67a1.646,1.646,0,0,1,.225-.833,1.733,1.733,0,0,1,.63-.634,1.7,1.7,0,0,1,.887-.241,1.788,1.788,0,0,1,1.169.384,2.338,2.338,0,0,1,.708.981A3.319,3.319,0,0,1,272.548,53.546Z"/><path d="M288.168,54.331h-8.611V43h3.418v8.619h5.193Z"/><path d="M298.919,45.752h-4.153v8.579h-3.41V45.752H287.2V43h11.718Z"/><path d="M312.161,48.868a5.4,5.4,0,0,1-.634,2.8,5.947,5.947,0,0,1-1.491,1.709,5.4,5.4,0,0,1-3.411.957h-6.117V43h4.711a12.775,12.775,0,0,1,1.82.111,8.036,8.036,0,0,1,1.36.309,5.523,5.523,0,0,1,1.032.45,5.258,5.258,0,0,1,.759.536,5.2,5.2,0,0,1,1.019,1.12,5.474,5.474,0,0,1,.694,1.5A6.273,6.273,0,0,1,312.161,48.868Zm-3.475-.147a3.769,3.769,0,0,0-.528-2.154,2.572,2.572,0,0,0-1.267-1.035,4.485,4.485,0,0,0-1.51-.262h-1.455v6.714h1.455a4.165,4.165,0,0,0,2.324-.638A2.931,2.931,0,0,0,308.686,48.721Z"/><path d="M316.816,52.72a1.7,1.7,0,0,1-.5,1.246,1.665,1.665,0,0,1-1.238.513,1.72,1.72,0,0,1-1.252-.516,1.741,1.741,0,0,1,0-2.49,1.758,1.758,0,0,1,2.121-.274,1.7,1.7,0,0,1,.643.638A1.741,1.741,0,0,1,316.816,52.72Z"/><path class="cls-3" d="M101.306,30.945H98.664l-.607,2.047h-1.01l2.519-7.82h.843l2.525,7.82h-1.01ZM98.921,30.1h2.133l-1.069-3.556Z"/><path class="cls-3" d="M105.487,27.181l.027.628a1.694,1.694,0,0,1,1.412-.736q1.542,0,1.563,2.058v3.861h-.945V29.174a1.579,1.579,0,0,0-.229-.97.817.817,0,0,0-.684-.287.966.966,0,0,0-.637.236,1.7,1.7,0,0,0-.453.618v4.221h-.951V27.181Z"/><path class="cls-3" d="M115.61,33.1a2.119,2.119,0,0,1-1.665-.648,2.8,2.8,0,0,1-.591-1.9v-.7a3.271,3.271,0,0,1,.567-2.038,1.879,1.879,0,0,1,1.582-.739,1.811,1.811,0,0,1,1.525.65,3.337,3.337,0,0,1,.516,2.025v.623H114.3v.135a2.113,2.113,0,0,0,.352,1.358,1.242,1.242,0,0,0,1.012.425,1.643,1.643,0,0,0,.739-.159,1.837,1.837,0,0,0,.6-.5l.495.6A2.156,2.156,0,0,1,115.61,33.1Zm-.107-5.21a1,1,0,0,0-.876.405,2.413,2.413,0,0,0-.322,1.26h2.288v-.129a2.219,2.219,0,0,0-.3-1.182A.919.919,0,0,0,115.5,27.89Z"/><path class="cls-3" d="M120.224,27.181l.027.628a1.7,1.7,0,0,1,1.413-.736q1.54,0,1.563,2.058v3.861h-.946V29.174a1.587,1.587,0,0,0-.228-.97.821.821,0,0,0-.685-.287.966.966,0,0,0-.637.236,1.715,1.715,0,0,0-.453.618v4.221h-.951V27.181Z"/><path class="cls-3" d="M125.069,29.823a3.539,3.539,0,0,1,.494-2.054,1.662,1.662,0,0,1,1.445-.7,1.486,1.486,0,0,1,1.348.758l.049-.65h.859v5.865a2.3,2.3,0,0,1-.553,1.657,2.035,2.035,0,0,1-1.542.577,2.651,2.651,0,0,1-.963-.212,2.033,2.033,0,0,1-.8-.523l.387-.656a1.83,1.83,0,0,0,1.3.58q1.188,0,1.219-1.294v-.757A1.491,1.491,0,0,1,127,33.1a1.652,1.652,0,0,1-1.407-.68,3.325,3.325,0,0,1-.527-1.952Zm.951.54a2.784,2.784,0,0,0,.287,1.435,1.027,1.027,0,0,0,.943.458,1.132,1.132,0,0,0,1.063-.724v-2.9a1.148,1.148,0,0,0-1.052-.713,1.034,1.034,0,0,0-.946.458,2.717,2.717,0,0,0-.3,1.408Z"/><path class="cls-3" d="M132.34,25.639a.61.61,0,0,1-.134.4.5.5,0,0,1-.409.161.493.493,0,0,1-.4-.161.606.606,0,0,1-.135-.4.627.627,0,0,1,.135-.408.485.485,0,0,1,.4-.167.492.492,0,0,1,.406.169A.629.629,0,0,1,132.34,25.639Zm-.075,7.353h-.951V27.181h.951Z"/><path class="cls-3" d="M135.217,27.181l.027.628a1.693,1.693,0,0,1,1.412-.736q1.542,0,1.563,2.058v3.861h-.945V29.174a1.579,1.579,0,0,0-.229-.97.817.817,0,0,0-.684-.287.966.966,0,0,0-.637.236,1.7,1.7,0,0,0-.453.618v4.221h-.951V27.181Z"/><path class="cls-3" d="M142.309,33.1a2.116,2.116,0,0,1-1.665-.648,2.791,2.791,0,0,1-.591-1.9v-.7a3.271,3.271,0,0,1,.567-2.038,1.876,1.876,0,0,1,1.581-.739,1.814,1.814,0,0,1,1.526.65,3.344,3.344,0,0,1,.515,2.025v.623H141v.135a2.113,2.113,0,0,0,.352,1.358,1.242,1.242,0,0,0,1.012.425,1.637,1.637,0,0,0,.739-.159,1.84,1.84,0,0,0,.6-.5l.494.6A2.155,2.155,0,0,1,142.309,33.1Zm-.108-5.21a1,1,0,0,0-.875.405,2.4,2.4,0,0,0-.323,1.26h2.289v-.129a2.228,2.228,0,0,0-.3-1.182A.921.921,0,0,0,142.2,27.89Z"/><path class="cls-3" d="M148.087,33.1a2.119,2.119,0,0,1-1.665-.648,2.8,2.8,0,0,1-.59-1.9v-.7a3.278,3.278,0,0,1,.566-2.038,1.879,1.879,0,0,1,1.582-.739,1.811,1.811,0,0,1,1.525.65,3.337,3.337,0,0,1,.516,2.025v.623h-3.244v.135a2.113,2.113,0,0,0,.352,1.358,1.242,1.242,0,0,0,1.012.425,1.64,1.64,0,0,0,.739-.159,1.85,1.85,0,0,0,.6-.5l.494.6A2.156,2.156,0,0,1,148.087,33.1Zm-.107-5.21a1,1,0,0,0-.876.405,2.413,2.413,0,0,0-.322,1.26h2.288v-.129a2.219,2.219,0,0,0-.3-1.182A.919.919,0,0,0,147.98,27.89Z"/><path class="cls-3" d="M154.205,28.072a2.32,2.32,0,0,0-.43-.037,1.042,1.042,0,0,0-1.02.8v4.157H151.8V27.181h.924l.016.59a1.184,1.184,0,0,1,1.08-.7.839.839,0,0,1,.376.075Z"/><path class="cls-3" d="M156.848,25.639a.606.606,0,0,1-.135.4.591.591,0,0,1-.811,0,.61.61,0,0,1-.134-.4.632.632,0,0,1,.134-.408.57.57,0,0,1,.808,0A.624.624,0,0,1,156.848,25.639Zm-.076,7.353h-.95V27.181h.95Z"/><path class="cls-3" d="M159.726,27.181l.027.628a1.7,1.7,0,0,1,1.413-.736q1.541,0,1.563,2.058v3.861h-.946V29.174a1.587,1.587,0,0,0-.228-.97.821.821,0,0,0-.685-.287.966.966,0,0,0-.637.236,1.715,1.715,0,0,0-.453.618v4.221h-.951V27.181Z"/><path class="cls-3" d="M164.571,29.823a3.532,3.532,0,0,1,.494-2.054,1.661,1.661,0,0,1,1.445-.7,1.486,1.486,0,0,1,1.348.758l.048-.65h.86v5.865a2.3,2.3,0,0,1-.554,1.657,2.031,2.031,0,0,1-1.541.577,2.651,2.651,0,0,1-.964-.212,2.029,2.029,0,0,1-.8-.523l.387-.656a1.83,1.83,0,0,0,1.305.58q1.186,0,1.219-1.294v-.757a1.493,1.493,0,0,1-1.311.682,1.655,1.655,0,0,1-1.407-.68,3.332,3.332,0,0,1-.526-1.952Zm.95.54a2.772,2.772,0,0,0,.288,1.435,1.024,1.024,0,0,0,.942.458,1.133,1.133,0,0,0,1.064-.724v-2.9a1.148,1.148,0,0,0-1.053-.713,1.031,1.031,0,0,0-.945.458,2.726,2.726,0,0,0-.3,1.408Z"/><path class="cls-3" d="M176.623,31.5a.7.7,0,0,0-.231-.525,3.366,3.366,0,0,0-.892-.516,5.929,5.929,0,0,1-1.083-.543,1.539,1.539,0,0,1-.469-.513,1.417,1.417,0,0,1-.156-.685,1.527,1.527,0,0,1,.518-1.179,2.117,2.117,0,0,1,2.689.024,1.682,1.682,0,0,1,.515,1.268h-.945a.939.939,0,0,0-.263-.669.89.89,0,0,0-.672-.276.947.947,0,0,0-.658.216.75.75,0,0,0-.239.582.631.631,0,0,0,.175.465,3.116,3.116,0,0,0,.84.466,4.227,4.227,0,0,1,1.44.81,1.386,1.386,0,0,1,.381,1,1.53,1.53,0,0,1-.521,1.213,2.049,2.049,0,0,1-1.4.455,2.082,2.082,0,0,1-1.472-.522,1.718,1.718,0,0,1-.564-1.32h.956a1.139,1.139,0,0,0,1.8.818A.713.713,0,0,0,176.623,31.5Z"/><path class="cls-3" d="M182.34,32.992a2.1,2.1,0,0,1-.123-.634,1.509,1.509,0,0,1-1.289.742,1.663,1.663,0,0,1-1.233-.444,1.684,1.684,0,0,1-.443-1.248,1.768,1.768,0,0,1,.6-1.408,2.477,2.477,0,0,1,1.648-.531h.7v-.618a.815.815,0,0,0-.935-.961.971.971,0,0,0-.7.255.855.855,0,0,0-.269.647h-.95a1.547,1.547,0,0,1,.263-.852,1.826,1.826,0,0,1,.709-.636,2.125,2.125,0,0,1,.993-.231,1.891,1.891,0,0,1,1.357.444,1.734,1.734,0,0,1,.475,1.291V31.74a3.506,3.506,0,0,0,.183,1.166v.086Zm-1.267-.758a1.259,1.259,0,0,0,.666-.193,1.2,1.2,0,0,0,.462-.482V30.172h-.537a1.8,1.8,0,0,0-1.069.3.96.96,0,0,0-.392.819,1.065,1.065,0,0,0,.2.717A.868.868,0,0,0,181.073,32.234Z"/><path class="cls-3" d="M186.184,32.992h-.951v-8.25h.951Z"/><path class="cls-3" d="M190.331,33.1a2.119,2.119,0,0,1-1.665-.648,2.8,2.8,0,0,1-.591-1.9v-.7a3.271,3.271,0,0,1,.567-2.038,1.879,1.879,0,0,1,1.582-.739,1.811,1.811,0,0,1,1.525.65,3.351,3.351,0,0,1,.516,2.025v.623h-3.244v.135a2.113,2.113,0,0,0,.352,1.358,1.241,1.241,0,0,0,1.012.425,1.643,1.643,0,0,0,.739-.159,1.847,1.847,0,0,0,.6-.5l.494.6A2.154,2.154,0,0,1,190.331,33.1Zm-.107-5.21a1,1,0,0,0-.876.405,2.4,2.4,0,0,0-.322,1.26h2.288v-.129a2.228,2.228,0,0,0-.3-1.182A.92.92,0,0,0,190.224,27.89Z"/><path class="cls-3" d="M196.759,31.5a.7.7,0,0,0-.231-.525,3.349,3.349,0,0,0-.892-.516,5.912,5.912,0,0,1-1.082-.543,1.542,1.542,0,0,1-.47-.513,1.417,1.417,0,0,1-.156-.685,1.527,1.527,0,0,1,.518-1.179,2.117,2.117,0,0,1,2.689.024,1.678,1.678,0,0,1,.515,1.268h-.945a.939.939,0,0,0-.263-.669.887.887,0,0,0-.671-.276.948.948,0,0,0-.659.216.749.749,0,0,0-.238.582.635.635,0,0,0,.174.465,3.127,3.127,0,0,0,.841.466,4.23,4.23,0,0,1,1.439.81,1.382,1.382,0,0,1,.381,1,1.527,1.527,0,0,1-.521,1.213,2.049,2.049,0,0,1-1.4.455,2.082,2.082,0,0,1-1.472-.522,1.718,1.718,0,0,1-.564-1.32h.956a1.14,1.14,0,0,0,1.8.818A.715.715,0,0,0,196.759,31.5Z"/><path class="cls-3" d="M204.583,32.289A1.009,1.009,0,0,0,205.34,32a1.243,1.243,0,0,0,.312-.836h.9a1.976,1.976,0,0,1-.594,1.389,1.884,1.884,0,0,1-1.372.551,2.02,2.02,0,0,1-1.646-.68,3.094,3.094,0,0,1-.567-2.022v-.639a3.081,3.081,0,0,1,.564-2,2.009,2.009,0,0,1,1.644-.685,1.837,1.837,0,0,1,1.415.564,2.3,2.3,0,0,1,.556,1.542h-.9a1.585,1.585,0,0,0-.309-.967.954.954,0,0,0-.765-.322,1.088,1.088,0,0,0-.94.416,2.4,2.4,0,0,0-.317,1.367v.741a2.585,2.585,0,0,0,.3,1.45A1.1,1.1,0,0,0,204.583,32.289Z"/><path class="cls-3" d="M208.092,29.818a3.038,3.038,0,0,1,.615-2.006,2.008,2.008,0,0,1,1.625-.739,2.034,2.034,0,0,1,1.625.72,2.994,2.994,0,0,1,.631,1.961v.611a3.027,3.027,0,0,1-.613,2,2.184,2.184,0,0,1-3.252.022,2.958,2.958,0,0,1-.631-1.934Zm.95.547a2.463,2.463,0,0,0,.352,1.41,1.1,1.1,0,0,0,.948.514q1.257,0,1.295-1.816v-.655a2.459,2.459,0,0,0-.355-1.41,1.1,1.1,0,0,0-.95-.518,1.082,1.082,0,0,0-.938.518,2.47,2.47,0,0,0-.352,1.4Z"/><path class="cls-3" d="M215.313,27.181l.021.537a1.729,1.729,0,0,1,1.4-.645,1.376,1.376,0,0,1,1.36.844,1.722,1.722,0,0,1,1.525-.844q1.6,0,1.643,2v3.916h-.946V29.168a1.6,1.6,0,0,0-.224-.942.885.885,0,0,0-.764-.309.851.851,0,0,0-.7.333,1.519,1.519,0,0,0-.313.848v3.894h-.955V29.125q-.017-1.209-.983-1.208a1.031,1.031,0,0,0-1.015.719v4.356h-.945V27.181Z"/><path class="cls-3" d="M227.483,30.365a3.472,3.472,0,0,1-.5,2.058,1.638,1.638,0,0,1-1.4.677,1.559,1.559,0,0,1-1.348-.661v2.788h-.945V27.181h.859l.048.644a1.533,1.533,0,0,1,1.37-.752,1.633,1.633,0,0,1,1.428.666,3.511,3.511,0,0,1,.489,1.993Zm-.945-.542a2.707,2.707,0,0,0-.3-1.442,1.063,1.063,0,0,0-.966-.464,1.119,1.119,0,0,0-1.037.682v3.024a1.123,1.123,0,0,0,1.047.666,1.05,1.05,0,0,0,.948-.465,2.656,2.656,0,0,0,.309-1.421Z"/><path class="cls-3" d="M232.226,32.992a2.058,2.058,0,0,1-.124-.634,1.507,1.507,0,0,1-1.289.742,1.665,1.665,0,0,1-1.233-.444,1.688,1.688,0,0,1-.443-1.248,1.77,1.77,0,0,1,.6-1.408,2.485,2.485,0,0,1,1.65-.531h.7v-.618a.815.815,0,0,0-.935-.961.974.974,0,0,0-.7.255.85.85,0,0,0-.268.647h-.951a1.547,1.547,0,0,1,.263-.852,1.826,1.826,0,0,1,.709-.636,2.128,2.128,0,0,1,.993-.231,1.9,1.9,0,0,1,1.358.444,1.741,1.741,0,0,1,.474,1.291V31.74a3.558,3.558,0,0,0,.183,1.166v.086Zm-1.268-.758a1.259,1.259,0,0,0,.666-.193,1.189,1.189,0,0,0,.462-.482V30.172h-.537a1.806,1.806,0,0,0-1.069.3.963.963,0,0,0-.392.819,1.059,1.059,0,0,0,.2.717A.864.864,0,0,0,230.958,32.234Z"/><path class="cls-3" d="M235.971,27.181l.027.628a1.694,1.694,0,0,1,1.412-.736q1.542,0,1.563,2.058v3.861h-.946V29.174a1.587,1.587,0,0,0-.228-.97.819.819,0,0,0-.684-.287.96.96,0,0,0-.636.236,1.708,1.708,0,0,0-.455.618v4.221h-.95V27.181Z"/><path class="cls-3" d="M242.472,31.413l1.057-4.232h1.01l-1.9,6.633a2.579,2.579,0,0,1-.608,1.136,1.234,1.234,0,0,1-.891.39,1.887,1.887,0,0,1-.494-.086v-.807l.209.022a.973.973,0,0,0,.647-.2,1.392,1.392,0,0,0,.379-.679l.187-.651-1.707-5.762H241.4Z"/><path class="cls-3" d="M251.908,31.5a.7.7,0,0,0-.231-.525,3.349,3.349,0,0,0-.892-.516,5.878,5.878,0,0,1-1.082-.543,1.557,1.557,0,0,1-.471-.513,1.429,1.429,0,0,1-.155-.685,1.524,1.524,0,0,1,.519-1.179,2.114,2.114,0,0,1,2.687.024,1.679,1.679,0,0,1,.516,1.268h-.945a.939.939,0,0,0-.263-.669.887.887,0,0,0-.671-.276.945.945,0,0,0-.658.216.747.747,0,0,0-.24.582.631.631,0,0,0,.175.465,3.116,3.116,0,0,0,.84.466,4.227,4.227,0,0,1,1.44.81,1.386,1.386,0,0,1,.381,1,1.529,1.529,0,0,1-.52,1.213,2.053,2.053,0,0,1-1.4.455,2.083,2.083,0,0,1-1.472-.522,1.722,1.722,0,0,1-.564-1.32h.956a1.139,1.139,0,0,0,1.8.818A.713.713,0,0,0,251.908,31.5Z"/><path class="cls-3" d="M257.6,32.482a1.633,1.633,0,0,1-1.381.618,1.389,1.389,0,0,1-1.192-.545,2.665,2.665,0,0,1-.408-1.588V27.181h.945V30.9q0,1.359.817,1.359a1.189,1.189,0,0,0,1.191-.774v-4.3h.951v5.811h-.9Z"/><path class="cls-3" d="M264.742,30.365a3.472,3.472,0,0,1-.5,2.058,1.638,1.638,0,0,1-1.4.677,1.56,1.56,0,0,1-1.348-.661v2.788h-.945V27.181h.859l.049.644a1.529,1.529,0,0,1,1.369-.752,1.636,1.636,0,0,1,1.429.666,3.535,3.535,0,0,1,.489,1.993Zm-.945-.542a2.716,2.716,0,0,0-.3-1.442,1.066,1.066,0,0,0-.967-.464,1.119,1.119,0,0,0-1.037.682v3.024a1.123,1.123,0,0,0,1.047.666,1.053,1.053,0,0,0,.949-.465A2.684,2.684,0,0,0,263.8,30.4Z"/><path class="cls-3" d="M270.8,30.365a3.472,3.472,0,0,1-.5,2.058,1.64,1.64,0,0,1-1.4.677,1.558,1.558,0,0,1-1.348-.661v2.788H266.6V27.181h.859l.048.644a1.531,1.531,0,0,1,1.37-.752,1.635,1.635,0,0,1,1.428.666,3.527,3.527,0,0,1,.489,1.993Zm-.945-.542a2.716,2.716,0,0,0-.3-1.442,1.065,1.065,0,0,0-.967-.464,1.118,1.118,0,0,0-1.036.682v3.024a1.122,1.122,0,0,0,1.047.666,1.051,1.051,0,0,0,.948-.465,2.665,2.665,0,0,0,.309-1.421Z"/><path class="cls-3" d="M272.457,29.818a3.043,3.043,0,0,1,.614-2.006,2.009,2.009,0,0,1,1.625-.739,2.032,2.032,0,0,1,1.625.72,2.989,2.989,0,0,1,.631,1.961v.611a3.027,3.027,0,0,1-.612,2,2.184,2.184,0,0,1-3.252.022,2.964,2.964,0,0,1-.631-1.934Zm.95.547a2.455,2.455,0,0,0,.352,1.41,1.1,1.1,0,0,0,.948.514q1.257,0,1.3-1.816v-.655a2.458,2.458,0,0,0-.356-1.41,1.1,1.1,0,0,0-.95-.518,1.083,1.083,0,0,0-.937.518,2.463,2.463,0,0,0-.352,1.4Z"/><path class="cls-3" d="M281.182,28.072a2.327,2.327,0,0,0-.43-.037,1.044,1.044,0,0,0-1.021.8v4.157h-.95V27.181h.924l.016.59a1.183,1.183,0,0,1,1.08-.7.835.835,0,0,1,.375.075Z"/><path class="cls-3" d="M284.293,25.773v1.408h.876v.768h-.876v3.608a.982.982,0,0,0,.113.522.423.423,0,0,0,.387.177,1.2,1.2,0,0,0,.381-.065l-.01.8a2.067,2.067,0,0,1-.661.108,1,1,0,0,1-.859-.4,1.9,1.9,0,0,1-.3-1.138v-3.61h-.886v-.768h.886V25.773Z"/><path class="cls-3" d="M287.906,25.639a.606.606,0,0,1-.135.4.59.59,0,0,1-.81,0,.606.606,0,0,1-.135-.4.627.627,0,0,1,.135-.408.487.487,0,0,1,.4-.167.5.5,0,0,1,.407.169A.628.628,0,0,1,287.906,25.639Zm-.075,7.353h-.95V27.181h.95Z"/><path class="cls-3" d="M290.785,27.181l.027.628a1.693,1.693,0,0,1,1.413-.736q1.54,0,1.562,2.058v3.861h-.945V29.174a1.579,1.579,0,0,0-.229-.97.82.82,0,0,0-.684-.287.962.962,0,0,0-.637.236,1.706,1.706,0,0,0-.454.618v4.221h-.95V27.181Z"/><path class="cls-3" d="M295.629,29.823a3.539,3.539,0,0,1,.494-2.054,1.662,1.662,0,0,1,1.445-.7,1.486,1.486,0,0,1,1.348.758l.049-.65h.859v5.865a2.3,2.3,0,0,1-.553,1.657,2.033,2.033,0,0,1-1.542.577,2.647,2.647,0,0,1-.963-.212,2.021,2.021,0,0,1-.8-.523l.387-.656a1.827,1.827,0,0,0,1.3.58q1.187,0,1.219-1.294v-.757a1.491,1.491,0,0,1-1.31.682,1.652,1.652,0,0,1-1.407-.68,3.332,3.332,0,0,1-.527-1.952Zm.951.54a2.784,2.784,0,0,0,.287,1.435,1.027,1.027,0,0,0,.944.458,1.132,1.132,0,0,0,1.062-.724v-2.9a1.147,1.147,0,0,0-1.053-.713,1.032,1.032,0,0,0-.945.458,2.727,2.727,0,0,0-.3,1.408Z"/><path class="cls-3" d="M306.1,25.773v1.408h.876v.768H306.1v3.608a.982.982,0,0,0,.113.522.423.423,0,0,0,.387.177,1.19,1.19,0,0,0,.38-.065l-.009.8a2.071,2.071,0,0,1-.661.108,1,1,0,0,1-.86-.4,1.905,1.905,0,0,1-.3-1.138v-3.61h-.885v-.768h.885V25.773Z"/><path class="cls-3" d="M309.605,27.777a1.682,1.682,0,0,1,1.387-.7q1.542,0,1.563,2.058v3.861h-.946V29.174a1.587,1.587,0,0,0-.228-.97.821.821,0,0,0-.685-.287.961.961,0,0,0-.636.236,1.72,1.72,0,0,0-.455.618v4.221h-.95v-8.25h.95Z"/><path class="cls-3" d="M316.639,33.1a2.116,2.116,0,0,1-1.664-.648,2.8,2.8,0,0,1-.592-1.9v-.7a3.271,3.271,0,0,1,.567-2.038,1.879,1.879,0,0,1,1.581-.739,1.812,1.812,0,0,1,1.526.65,3.338,3.338,0,0,1,.515,2.025v.623h-3.244v.135a2.106,2.106,0,0,0,.353,1.358,1.241,1.241,0,0,0,1.012.425,1.637,1.637,0,0,0,.739-.159,1.837,1.837,0,0,0,.6-.5l.494.6A2.154,2.154,0,0,1,316.639,33.1Zm-.108-5.21a1,1,0,0,0-.875.405,2.413,2.413,0,0,0-.322,1.26h2.288v-.129a2.21,2.21,0,0,0-.3-1.182A.919.919,0,0,0,316.531,27.89Z"/><path class="cls-3" d="M327.664,31.322l.881-4.141h.94l-1.422,5.811h-.758l-1.133-4.157-1.108,4.157H324.3l-1.413-5.811h.934l.9,4.039,1.08-4.039h.752Z"/><path class="cls-3" d="M330.764,29.818a3.043,3.043,0,0,1,.614-2.006A2.009,2.009,0,0,1,333,27.073a2.032,2.032,0,0,1,1.625.72,2.989,2.989,0,0,1,.631,1.961v.611a3.022,3.022,0,0,1-.613,2,2.183,2.183,0,0,1-3.251.022,2.953,2.953,0,0,1-.631-1.934Zm.95.547a2.463,2.463,0,0,0,.351,1.41,1.1,1.1,0,0,0,.949.514q1.257,0,1.3-1.816v-.655a2.466,2.466,0,0,0-.356-1.41,1.1,1.1,0,0,0-.95-.518,1.085,1.085,0,0,0-.938.518,2.471,2.471,0,0,0-.351,1.4Z"/><path class="cls-3" d="M339.488,28.072a2.316,2.316,0,0,0-.429-.037,1.043,1.043,0,0,0-1.021.8v4.157h-.95V27.181h.924l.015.59a1.184,1.184,0,0,1,1.08-.7.829.829,0,0,1,.375.075Z"/><path class="cls-3" d="M342.056,32.992h-.951v-8.25h.951Z"/><path class="cls-3" d="M343.946,29.823a3.491,3.491,0,0,1,.5-2.046,1.663,1.663,0,0,1,1.442-.7,1.492,1.492,0,0,1,1.3.677V24.742h.951v8.25h-.87l-.048-.623a1.5,1.5,0,0,1-1.338.731,1.653,1.653,0,0,1-1.414-.7,3.341,3.341,0,0,1-.525-1.978Zm.95.54a2.747,2.747,0,0,0,.292,1.435,1.03,1.03,0,0,0,.945.458,1.123,1.123,0,0,0,1.057-.713V28.614a1.141,1.141,0,0,0-1.052-.7,1.034,1.034,0,0,0-.946.458,2.726,2.726,0,0,0-.3,1.408Z"/><path class="cls-3" d="M350.389,27.374l-.532-.387a2.95,2.95,0,0,0,.436-1.461v-.784h.939v.725a2.754,2.754,0,0,1-.239,1.045A2.378,2.378,0,0,1,350.389,27.374Z"/><path class="cls-3" d="M355.416,31.5a.7.7,0,0,0-.23-.525,3.384,3.384,0,0,0-.892-.516,5.929,5.929,0,0,1-1.083-.543,1.539,1.539,0,0,1-.469-.513,1.417,1.417,0,0,1-.156-.685,1.527,1.527,0,0,1,.518-1.179,2.117,2.117,0,0,1,2.689.024,1.679,1.679,0,0,1,.516,1.268h-.946a.939.939,0,0,0-.263-.669.89.89,0,0,0-.672-.276.945.945,0,0,0-.658.216.75.75,0,0,0-.239.582.639.639,0,0,0,.174.465,3.139,3.139,0,0,0,.842.466,4.24,4.24,0,0,1,1.439.81,1.386,1.386,0,0,1,.381,1,1.53,1.53,0,0,1-.521,1.213,2.05,2.05,0,0,1-1.4.455,2.077,2.077,0,0,1-1.47-.522,1.716,1.716,0,0,1-.565-1.32h.956a.983.983,0,0,0,1.079,1.031,1.076,1.076,0,0,0,.721-.213A.715.715,0,0,0,355.416,31.5Z"/><path class="cls-3" d="M362.322,25.639a.61.61,0,0,1-.134.4.591.591,0,0,1-.811,0,.61.61,0,0,1-.134-.4.632.632,0,0,1,.134-.408.571.571,0,0,1,.809,0A.628.628,0,0,1,362.322,25.639Zm-.074,7.353H361.3V27.181h.951Z"/><path class="cls-3" d="M365.2,27.181l.027.628a1.693,1.693,0,0,1,1.413-.736q1.541,0,1.562,2.058v3.861h-.945V29.174a1.579,1.579,0,0,0-.229-.97.82.82,0,0,0-.684-.287.962.962,0,0,0-.637.236,1.717,1.717,0,0,0-.454.618v4.221h-.95V27.181Z"/><path class="cls-3" d="M370.041,29.823a3.5,3.5,0,0,1,.5-2.046,1.662,1.662,0,0,1,1.441-.7,1.5,1.5,0,0,1,1.3.677V24.742h.951v8.25h-.871l-.049-.623a1.5,1.5,0,0,1-1.337.731,1.656,1.656,0,0,1-1.415-.7,3.356,3.356,0,0,1-.523-1.978Zm.95.54a2.759,2.759,0,0,0,.29,1.435,1.033,1.033,0,0,0,.946.458,1.125,1.125,0,0,0,1.058-.713V28.614a1.144,1.144,0,0,0-1.053-.7,1.031,1.031,0,0,0-.945.458,2.716,2.716,0,0,0-.3,1.408Z"/><path class="cls-3" d="M379.24,32.482a1.633,1.633,0,0,1-1.381.618,1.388,1.388,0,0,1-1.191-.545,2.651,2.651,0,0,1-.408-1.588V27.181h.945V30.9q0,1.359.816,1.359a1.19,1.19,0,0,0,1.192-.774v-4.3h.951v5.811h-.9Z"/><path class="cls-3" d="M384.938,31.5a.7.7,0,0,0-.231-.525,3.356,3.356,0,0,0-.891-.516,5.946,5.946,0,0,1-1.084-.543,1.525,1.525,0,0,1-.468-.513,1.417,1.417,0,0,1-.157-.685,1.523,1.523,0,0,1,.518-1.179,2.117,2.117,0,0,1,2.689.024,1.679,1.679,0,0,1,.516,1.268h-.945a.936.936,0,0,0-.264-.669.887.887,0,0,0-.672-.276.947.947,0,0,0-.658.216.752.752,0,0,0-.238.582.635.635,0,0,0,.174.465,3.11,3.11,0,0,0,.841.466,4.237,4.237,0,0,1,1.44.81,1.386,1.386,0,0,1,.381,1,1.528,1.528,0,0,1-.522,1.213,2.047,2.047,0,0,1-1.4.455,2.076,2.076,0,0,1-1.471-.522,1.715,1.715,0,0,1-.564-1.32h.957a1.05,1.05,0,0,0,.3.757,1.287,1.287,0,0,0,1.5.061A.715.715,0,0,0,384.938,31.5Z"/><path class="cls-3" d="M389.061,25.773v1.408h.875v.768h-.875v3.608a.973.973,0,0,0,.113.522.42.42,0,0,0,.387.177,1.19,1.19,0,0,0,.38-.065l-.009.8a2.073,2.073,0,0,1-.662.108,1,1,0,0,1-.86-.4,1.912,1.912,0,0,1-.3-1.138v-3.61h-.886v-.768h.886V25.773Z"/><path class="cls-3" d="M394.014,28.072a2.312,2.312,0,0,0-.43-.037,1.043,1.043,0,0,0-1.02.8v4.157h-.951V27.181h.924l.016.59a1.186,1.186,0,0,1,1.08-.7.85.85,0,0,1,.377.075Z"/><path class="cls-3" d="M396.658,25.639a.606.606,0,0,1-.135.4.5.5,0,0,1-.408.161.492.492,0,0,1-.4-.161.606.606,0,0,1-.135-.4.627.627,0,0,1,.135-.408.483.483,0,0,1,.4-.167.492.492,0,0,1,.4.169A.63.63,0,0,1,396.658,25.639Zm-.076,7.353h-.951V27.181h.951Z"/><path class="cls-3" d="M400.7,33.1a2.117,2.117,0,0,1-1.664-.648,2.8,2.8,0,0,1-.592-1.9v-.7a3.265,3.265,0,0,1,.569-2.038,1.876,1.876,0,0,1,1.58-.739,1.81,1.81,0,0,1,1.525.65,3.323,3.323,0,0,1,.516,2.025v.623h-3.244v.135a2.118,2.118,0,0,0,.353,1.358,1.24,1.24,0,0,0,1.012.425,1.636,1.636,0,0,0,.738-.159,1.863,1.863,0,0,0,.6-.5l.494.6A2.157,2.157,0,0,1,400.7,33.1Zm-.107-5.21a1,1,0,0,0-.875.405,2.412,2.412,0,0,0-.323,1.26h2.29v-.129a2.227,2.227,0,0,0-.3-1.182A.921.921,0,0,0,400.6,27.89Z"/><path class="cls-3" d="M407.131,31.5a.7.7,0,0,0-.231-.525,3.364,3.364,0,0,0-.89-.516,5.912,5.912,0,0,1-1.084-.543,1.539,1.539,0,0,1-.469-.513,1.429,1.429,0,0,1-.156-.685,1.526,1.526,0,0,1,.517-1.179,2.118,2.118,0,0,1,2.69.024,1.678,1.678,0,0,1,.515,1.268h-.945a.936.936,0,0,0-.264-.669.884.884,0,0,0-.671-.276.95.95,0,0,0-.659.216.752.752,0,0,0-.238.582.639.639,0,0,0,.174.465,3.1,3.1,0,0,0,.842.466,4.23,4.23,0,0,1,1.439.81,1.386,1.386,0,0,1,.381,1,1.53,1.53,0,0,1-.521,1.213,2.052,2.052,0,0,1-1.4.455,2.077,2.077,0,0,1-1.471-.522,1.715,1.715,0,0,1-.564-1.32h.957a1.054,1.054,0,0,0,.295.757,1.288,1.288,0,0,0,1.5.061A.715.715,0,0,0,407.131,31.5Z"/><path class="cls-3" d="M409.924,32.471a.628.628,0,0,1,.152-.43.586.586,0,0,1,.459-.172.6.6,0,0,1,.465.172.613.613,0,0,1,.158.43.581.581,0,0,1-.158.414.61.61,0,0,1-.465.166.55.55,0,0,1-.611-.58Z"/></svg>